<mxfile host="app.diagrams.net" modified="2023-05-09T03:18:39.024Z" agent="Mozilla/5.0 (Windows NT 10.0; Win64; x64) AppleWebKit/537.36 (KHTML, like Gecko) Chrome/112.0.0.0 Safari/537.36" etag="NfstJOX7bBbErkW_rnUG" version="21.2.9" type="device">
  <diagram id="C5RBs43oDa-KdzZeNtuy" name="Page-1">
    <mxGraphModel dx="1024" dy="541" grid="1" gridSize="10" guides="1" tooltips="1" connect="1" arrows="1" fold="1" page="1" pageScale="1" pageWidth="827" pageHeight="1169" math="0" shadow="0">
      <root>
        <mxCell id="WIyWlLk6GJQsqaUBKTNV-0" />
        <mxCell id="WIyWlLk6GJQsqaUBKTNV-1" parent="WIyWlLk6GJQsqaUBKTNV-0" />
        <mxCell id="Y-QAcEhxXrQxNih0i_5V-3" style="edgeStyle=orthogonalEdgeStyle;rounded=0;orthogonalLoop=1;jettySize=auto;html=1;entryX=0.5;entryY=0;entryDx=0;entryDy=0;" edge="1" parent="WIyWlLk6GJQsqaUBKTNV-1" source="Y-QAcEhxXrQxNih0i_5V-0" target="Y-QAcEhxXrQxNih0i_5V-2">
          <mxGeometry relative="1" as="geometry" />
        </mxCell>
        <mxCell id="Y-QAcEhxXrQxNih0i_5V-0" value="Mulai" style="ellipse;whiteSpace=wrap;html=1;" vertex="1" parent="WIyWlLk6GJQsqaUBKTNV-1">
          <mxGeometry x="160" y="40" width="120" height="40" as="geometry" />
        </mxCell>
        <mxCell id="Y-QAcEhxXrQxNih0i_5V-7" style="edgeStyle=orthogonalEdgeStyle;rounded=0;orthogonalLoop=1;jettySize=auto;html=1;entryX=0.5;entryY=0;entryDx=0;entryDy=0;" edge="1" parent="WIyWlLk6GJQsqaUBKTNV-1" source="Y-QAcEhxXrQxNih0i_5V-1" target="Y-QAcEhxXrQxNih0i_5V-5">
          <mxGeometry relative="1" as="geometry" />
        </mxCell>
        <mxCell id="Y-QAcEhxXrQxNih0i_5V-1" value="Get Token" style="shape=parallelogram;perimeter=parallelogramPerimeter;whiteSpace=wrap;html=1;fixedSize=1;" vertex="1" parent="WIyWlLk6GJQsqaUBKTNV-1">
          <mxGeometry x="160" y="160" width="120" height="40" as="geometry" />
        </mxCell>
        <mxCell id="Y-QAcEhxXrQxNih0i_5V-4" style="edgeStyle=orthogonalEdgeStyle;rounded=0;orthogonalLoop=1;jettySize=auto;html=1;entryX=0.5;entryY=0;entryDx=0;entryDy=0;" edge="1" parent="WIyWlLk6GJQsqaUBKTNV-1" source="Y-QAcEhxXrQxNih0i_5V-2" target="Y-QAcEhxXrQxNih0i_5V-1">
          <mxGeometry relative="1" as="geometry" />
        </mxCell>
        <mxCell id="Y-QAcEhxXrQxNih0i_5V-2" value="Hit Login API" style="rounded=1;whiteSpace=wrap;html=1;" vertex="1" parent="WIyWlLk6GJQsqaUBKTNV-1">
          <mxGeometry x="160" y="100" width="120" height="40" as="geometry" />
        </mxCell>
        <mxCell id="Y-QAcEhxXrQxNih0i_5V-12" value="" style="edgeStyle=orthogonalEdgeStyle;rounded=0;orthogonalLoop=1;jettySize=auto;html=1;" edge="1" parent="WIyWlLk6GJQsqaUBKTNV-1" source="Y-QAcEhxXrQxNih0i_5V-5" target="Y-QAcEhxXrQxNih0i_5V-11">
          <mxGeometry relative="1" as="geometry" />
        </mxCell>
        <mxCell id="Y-QAcEhxXrQxNih0i_5V-5" value="Simpan Token kedalam variable" style="rounded=1;whiteSpace=wrap;html=1;" vertex="1" parent="WIyWlLk6GJQsqaUBKTNV-1">
          <mxGeometry x="160" y="220" width="120" height="40" as="geometry" />
        </mxCell>
        <mxCell id="Y-QAcEhxXrQxNih0i_5V-6" value="Token akan termasuk kedalam JSON response sebagai output dari Login API" style="text;html=1;strokeColor=none;fillColor=none;align=left;verticalAlign=middle;whiteSpace=wrap;rounded=0;" vertex="1" parent="WIyWlLk6GJQsqaUBKTNV-1">
          <mxGeometry x="310" y="140" width="240" height="30" as="geometry" />
        </mxCell>
        <mxCell id="Y-QAcEhxXrQxNih0i_5V-16" value="" style="edgeStyle=orthogonalEdgeStyle;rounded=0;orthogonalLoop=1;jettySize=auto;html=1;entryX=0.5;entryY=0;entryDx=0;entryDy=0;" edge="1" parent="WIyWlLk6GJQsqaUBKTNV-1" source="Y-QAcEhxXrQxNih0i_5V-8" target="Y-QAcEhxXrQxNih0i_5V-18">
          <mxGeometry relative="1" as="geometry" />
        </mxCell>
        <mxCell id="Y-QAcEhxXrQxNih0i_5V-8" value="Tambahkan Token kedalam header setiap Hit API" style="rounded=1;whiteSpace=wrap;html=1;" vertex="1" parent="WIyWlLk6GJQsqaUBKTNV-1">
          <mxGeometry x="110" y="340" width="220" height="40" as="geometry" />
        </mxCell>
        <mxCell id="Y-QAcEhxXrQxNih0i_5V-13" value="" style="edgeStyle=orthogonalEdgeStyle;rounded=0;orthogonalLoop=1;jettySize=auto;html=1;" edge="1" parent="WIyWlLk6GJQsqaUBKTNV-1" source="Y-QAcEhxXrQxNih0i_5V-11" target="Y-QAcEhxXrQxNih0i_5V-8">
          <mxGeometry relative="1" as="geometry" />
        </mxCell>
        <mxCell id="Y-QAcEhxXrQxNih0i_5V-11" value="Simpan Token kedalam lokal DB" style="rounded=1;whiteSpace=wrap;html=1;" vertex="1" parent="WIyWlLk6GJQsqaUBKTNV-1">
          <mxGeometry x="160" y="280" width="120" height="40" as="geometry" />
        </mxCell>
        <mxCell id="Y-QAcEhxXrQxNih0i_5V-14" value="Format Token yang dikirim adalah dengan Key &quot;auth&quot; dan Value &quot;Bearer {{token}}&quot;" style="text;html=1;strokeColor=none;fillColor=none;align=left;verticalAlign=middle;whiteSpace=wrap;rounded=0;" vertex="1" parent="WIyWlLk6GJQsqaUBKTNV-1">
          <mxGeometry x="350" y="345" width="240" height="30" as="geometry" />
        </mxCell>
        <mxCell id="Y-QAcEhxXrQxNih0i_5V-15" value="Selesai" style="ellipse;whiteSpace=wrap;html=1;" vertex="1" parent="WIyWlLk6GJQsqaUBKTNV-1">
          <mxGeometry x="160" y="460" width="120" height="40" as="geometry" />
        </mxCell>
        <mxCell id="Y-QAcEhxXrQxNih0i_5V-19" style="edgeStyle=orthogonalEdgeStyle;rounded=0;orthogonalLoop=1;jettySize=auto;html=1;entryX=0.5;entryY=0;entryDx=0;entryDy=0;" edge="1" parent="WIyWlLk6GJQsqaUBKTNV-1" source="Y-QAcEhxXrQxNih0i_5V-18" target="Y-QAcEhxXrQxNih0i_5V-15">
          <mxGeometry relative="1" as="geometry" />
        </mxCell>
        <mxCell id="Y-QAcEhxXrQxNih0i_5V-18" value="Send Token" style="shape=parallelogram;perimeter=parallelogramPerimeter;whiteSpace=wrap;html=1;fixedSize=1;" vertex="1" parent="WIyWlLk6GJQsqaUBKTNV-1">
          <mxGeometry x="160" y="400" width="120" height="40" as="geometry" />
        </mxCell>
        <mxCell id="Y-QAcEhxXrQxNih0i_5V-20" value="Contoh : &lt;br&gt;Key &quot;auth&quot; &lt;br&gt;Value &quot;Bearer eyJ0eXAiOiJKV1QiLCJhbGciOiJIUzI1NiJ9.&lt;br&gt;eyJleHAiOjE2ODM2MDM5MzcsInVzZXJOYW1lIjoiZHVtbXkifQ.&lt;br&gt;DGwMe3lgrzPuQxqZhI6qbWTMs3UIOvnBQzTlBfA_hs0&lt;span style=&quot;background-color: initial;&quot;&gt;&quot;&lt;/span&gt;" style="text;html=1;strokeColor=none;fillColor=none;align=left;verticalAlign=middle;whiteSpace=wrap;rounded=0;" vertex="1" parent="WIyWlLk6GJQsqaUBKTNV-1">
          <mxGeometry x="320" y="380" width="366" height="85" as="geometry" />
        </mxCell>
        <mxCell id="Y-QAcEhxXrQxNih0i_5V-21" value="Contoh Token :&amp;nbsp;&lt;br&gt;eyJ0eXAiOiJKV1QiLCJhbGciOiJIUzI1NiJ9.&lt;br style=&quot;border-color: var(--border-color);&quot;&gt;&lt;span style=&quot;&quot;&gt;eyJleHAiOjE2ODM2MDM5MzcsInVzZXJOYW1lIjoiZHVtbXkifQ.&lt;/span&gt;&lt;br style=&quot;border-color: var(--border-color);&quot;&gt;&lt;div style=&quot;&quot;&gt;&lt;span style=&quot;background-color: initial;&quot;&gt;DGwMe3lgrzPuQxqZhI6qbWTMs3UIOvnBQzTlBfA_hs0&lt;/span&gt;&lt;/div&gt;" style="text;html=1;strokeColor=none;fillColor=none;align=left;verticalAlign=middle;whiteSpace=wrap;rounded=0;" vertex="1" parent="WIyWlLk6GJQsqaUBKTNV-1">
          <mxGeometry x="310" y="190" width="240" height="30" as="geometry" />
        </mxCell>
      </root>
    </mxGraphModel>
  </diagram>
</mxfile>
